<?xml version="1.0" standalone="no"?>
<!DOCTYPE svg PUBLIC "-//W3C//DTD SVG 20010904//EN"
 "http://www.w3.org/TR/2001/REC-SVG-20010904/DTD/svg10.dtd">
<svg version="1.0" xmlns="http://www.w3.org/2000/svg"
 width="512.000000pt" height="512.000000pt" viewBox="0 0 512.000000 512.000000"
 preserveAspectRatio="xMidYMid meet">

<g transform="translate(0.000000,512.000000) scale(0.100000,-0.100000)"
fill="#FFF" stroke="none">
<path d="M2345 5030 c-608 -68 -1126 -317 -1541 -742 -278 -284 -468 -595
-590 -966 -215 -652 -146 -1383 187 -1984 110 -199 235 -364 403 -536 651
-666 1594 -910 2498 -648 260 76 552 225 793 405 127 95 379 347 474 474 207
278 350 573 431 892 60 238 74 355 74 620 0 265 -14 382 -74 620 -177 699
-655 1288 -1308 1614 -249 124 -474 195 -757 237 -119 18 -478 26 -590 14z
m500 -521 c18 -9 33 -27 41 -50 16 -48 52 -300 60 -424 9 -133 -6 -189 -105
-391 -95 -194 -125 -229 -205 -239 -30 -4 -78 -4 -108 0 -77 10 -116 55 -205
235 -89 180 -104 231 -104 343 1 142 45 459 72 509 9 16 30 23 109 32 19 2
121 3 225 2 139 -2 199 -7 220 -17z m-860 -102 c10 -37 -39 -298 -71 -384 -13
-37 -20 -43 -45 -43 -52 0 -396 190 -383 211 19 32 260 160 393 210 93 34 99
35 106 6z m1313 -11 c164 -63 387 -186 379 -210 -6 -18 -93 -72 -230 -142
-142 -72 -173 -77 -195 -31 -17 36 -60 252 -68 345 -8 87 -10 86 114 38z
m-1987 -431 c174 -89 405 -246 458 -314 36 -45 164 -302 187 -375 23 -72 13
-114 -43 -184 -92 -116 -99 -118 -302 -76 -156 32 -260 66 -329 107 -59 35
-371 346 -396 394 -14 29 -13 32 20 88 87 144 297 385 336 385 10 0 41 -11 69
-25z m2700 -42 c125 -129 279 -336 279 -376 0 -32 -61 -104 -222 -263 -196
-194 -224 -209 -501 -269 -64 -14 -140 -25 -169 -25 -51 0 -54 1 -110 61 -63
68 -88 112 -88 158 0 41 38 140 112 290 74 149 125 205 273 303 131 87 314
188 340 188 12 0 47 -27 86 -67z m468 -788 c35 -115 66 -259 76 -359 l8 -69
-31 6 c-36 7 -255 101 -332 143 -36 19 -56 36 -58 50 -6 39 276 360 297 338 5
-5 23 -54 40 -109z m-3647 18 c102 -105 200 -230 196 -252 -5 -26 -359 -191
-409 -191 -13 0 -14 10 -7 73 21 174 96 457 121 457 7 0 51 -39 99 -87z m1842
-70 c31 -31 41 -62 31 -100 -15 -63 -85 -98 -145 -73 -39 16 -60 51 -60 100 0
60 42 100 103 100 35 0 50 -6 71 -27z m-476 -346 c33 -33 39 -93 13 -134 -53
-85 -191 -44 -191 56 0 42 28 86 64 102 33 14 87 2 114 -24z m918 -1 c28 -28
34 -42 34 -76 0 -58 -41 -100 -100 -100 -52 0 -76 13 -95 50 -25 49 -19 88 19
126 26 26 42 34 71 34 29 0 45 -8 71 -34z m-439 -106 c98 -59 77 -214 -35
-251 -86 -29 -182 43 -182 137 0 36 36 97 68 117 37 23 109 21 149 -3z m-1203
-86 c153 -39 204 -61 228 -102 22 -37 48 -141 48 -192 0 -37 -6 -47 -52 -93
-62 -62 -265 -215 -323 -245 -22 -11 -65 -27 -95 -36 -70 -20 -371 -56 -472
-56 l-77 0 -35 108 c-38 118 -71 265 -81 357 -3 33 -8 70 -11 82 -3 19 4 27
46 48 62 31 373 141 455 160 86 21 202 11 369 -31z m2791 -32 c110 -38 221
-80 248 -93 41 -20 47 -27 47 -55 0 -89 -71 -403 -114 -506 l-16 -38 -65 0
c-78 0 -414 37 -470 52 -88 23 -239 121 -393 255 -86 75 -96 97 -82 176 6 34
22 85 35 114 28 63 60 81 202 118 282 74 335 72 608 -23z m-1880 -304 c53 -47
49 -134 -8 -168 -47 -29 -90 -26 -129 9 -28 25 -33 36 -33 76 0 40 5 51 33 76
41 37 98 40 137 7z m544 8 c15 -8 32 -26 39 -41 36 -78 -14 -155 -99 -155 -45
0 -99 56 -99 102 1 85 82 133 159 94z m-714 -466 c101 -48 109 -62 115 -198 7
-174 -4 -346 -28 -413 -21 -60 -221 -388 -276 -454 l-33 -39 -89 33 c-117 44
-272 119 -360 176 l-71 45 8 47 c17 108 148 445 203 527 50 73 249 241 341
287 70 35 96 34 190 -11z m931 10 c120 -60 317 -236 367 -329 43 -78 168 -429
174 -487 l6 -52 -97 -57 c-139 -82 -373 -185 -419 -185 -23 0 -276 393 -308
479 -41 110 -47 511 -8 557 33 40 159 103 205 104 11 0 47 -13 80 -30z m-1818
-239 c6 -60 -86 -411 -107 -411 -16 0 -161 160 -229 252 -94 129 -115 165
-101 174 14 8 243 22 354 20 l80 -1 3 -34z m2749 29 c100 -4 189 -12 198 -17
25 -15 -111 -207 -249 -350 -38 -40 -73 -73 -77 -73 -12 0 -77 210 -100 325
-19 94 -19 100 -3 112 10 7 25 13 33 13 9 -1 98 -5 198 -10z m-1359 -773 c111
-148 140 -193 128 -204 -10 -10 -512 -10 -522 0 -4 4 0 22 8 41 17 34 177 251
223 300 25 27 27 27 45 11 10 -9 63 -76 118 -148z"/>
</g>
</svg>
