<?xml version="1.0" standalone="no"?>
<!DOCTYPE svg PUBLIC "-//W3C//DTD SVG 20010904//EN"
 "http://www.w3.org/TR/2001/REC-SVG-20010904/DTD/svg10.dtd">
<svg version="1.0" xmlns="http://www.w3.org/2000/svg"
 width="1200.000000pt" height="1200.000000pt" viewBox="0 0 1200.000000 1200.000000"
 preserveAspectRatio="xMidYMid meet">

<g transform="translate(0.000000,1200.000000) scale(0.100000,-0.100000)"
fill="#0E0E0E"  stroke="none">
<path fill="#0057B8"  d="M5984 10923 l-79 -178 -193 -21 c-106 -12 -195 -23 -197 -26 -3 -2
60 -63 140 -134 80 -71 145 -133 145 -139 0 -5 -18 -93 -39 -195 -22 -102 -38
-186 -37 -187 1 -1 49 25 106 59 58 33 135 77 172 98 l67 38 170 -98 c128 -74
171 -94 171 -82 0 9 -16 91 -35 181 -19 90 -35 171 -35 180 0 10 65 76 144
147 106 95 139 131 127 135 -9 3 -98 14 -197 24 l-181 18 -79 178 c-44 98 -82
179 -85 179 -3 0 -41 -80 -85 -177z"/>
<path d="M4462 10520 c-74 -168 -67 -157 -108 -163 -22 -4 -72 -9 -111 -13
-40 -4 -73 -8 -73 -10 0 -3 25 -27 124 -116 l39 -35 -22 -107 c-13 -59 -21
-109 -19 -111 1 -2 44 21 93 51 50 29 93 53 97 54 3 0 48 -24 100 -54 51 -30
94 -53 96 -52 1 2 -8 51 -20 110 l-23 108 85 77 84 78 -79 7 c-153 13 -141 6
-195 120 l-48 101 -20 -45z"/>
<path d="M7520 10463 c-24 -54 -45 -99 -45 -101 -1 -1 -53 -8 -115 -14 l-113
-12 84 -77 84 -77 -23 -108 c-12 -59 -21 -108 -20 -110 2 -1 28 12 58 30 30
18 74 43 96 55 l41 23 97 -55 c53 -31 96 -52 96 -47 0 5 -10 55 -22 111 l-21
102 34 30 c71 62 130 119 127 122 -2 1 -50 7 -107 13 -57 6 -107 15 -112 19
-4 4 -24 46 -44 93 -21 47 -40 89 -44 93 -4 4 -27 -36 -51 -90z"/>
<path d="M3815 9526 c-175 -34 -296 -95 -406 -205 -114 -114 -176 -240 -217
-440 -16 -79 -17 -179 -17 -1206 0 -1246 -2 -1196 69 -1385 117 -312 389 -479
781 -480 388 0 664 168 781 475 58 154 66 221 71 588 l5 337 -270 0 -271 0 -3
-327 c-3 -312 -4 -331 -26 -384 -46 -115 -125 -163 -267 -164 -113 0 -168 20
-224 80 -80 87 -76 17 -76 1265 0 1040 1 1108 18 1157 46 131 128 186 277 186
105 0 174 -26 225 -86 63 -73 68 -102 73 -399 l4 -268 270 0 270 0 -5 278 c-5
253 -7 287 -31 386 -16 68 -43 146 -72 205 -39 81 -60 109 -133 181 -98 97
-199 154 -336 191 -102 27 -381 35 -490 15z"/>
<path d="M5535 9488 c-2 -7 -29 -173 -60 -368 -31 -195 -97 -607 -146 -915
-49 -308 -103 -643 -119 -745 -16 -102 -49 -311 -74 -465 -25 -154 -75 -464
-110 -690 -36 -225 -68 -420 -71 -433 l-5 -22 262 2 263 3 46 311 c26 171 49
319 51 328 3 15 37 16 358 17 l354 0 49 -328 c27 -180 50 -329 51 -331 2 -1
131 -1 287 0 l285 3 -73 455 c-113 704 -210 1315 -366 2290 l-143 895 -417 3
c-329 2 -418 0 -422 -10z m465 -1109 c38 -255 84 -556 100 -669 17 -113 47
-307 66 -432 18 -124 34 -237 34 -250 l0 -23 -275 0 c-240 0 -275 2 -275 15 0
9 61 420 135 915 74 495 135 904 135 909 0 5 2 7 5 4 3 -3 37 -214 75 -469z"/>
<path d="M7100 7675 l0 -1825 285 0 285 0 0 746 0 746 163 -4 c161 -3 164 -4
231 -37 67 -33 115 -82 138 -141 39 -101 41 -124 48 -660 6 -511 7 -527 29
-587 l23 -63 288 0 289 0 -14 33 c-37 89 -45 189 -45 581 0 585 -17 733 -100
903 -49 99 -129 184 -218 231 -34 18 -62 35 -62 36 0 2 26 19 59 39 131 81
231 226 278 405 24 91 26 115 31 388 3 236 1 311 -12 403 -46 314 -198 505
-466 585 -132 40 -227 46 -737 46 l-493 0 0 -1825z m971 1290 c59 -21 115 -78
141 -145 21 -51 22 -74 26 -350 4 -311 -2 -379 -40 -455 -28 -56 -65 -92 -123
-123 -48 -26 -58 -27 -227 -30 l-178 -4 0 561 0 561 179 0 c135 0 189 -4 222
-15z"/>

</g>
</svg>
