<?xml version="1.0" standalone="no"?>
<!DOCTYPE svg PUBLIC "-//W3C//DTD SVG 20010904//EN"
 "http://www.w3.org/TR/2001/REC-SVG-20010904/DTD/svg10.dtd">
<svg version="1.0" xmlns="http://www.w3.org/2000/svg"
 width="1200.000000pt" height="1200.000000pt" viewBox="0 0 1200.000000 1200.000000"
 preserveAspectRatio="xMidYMid meet">

<g transform="translate(0.000000,1200.000000) scale(0.100000,-0.100000)"
fill="#0E0E0E" stroke="none">
<path d="M5984 10923 l-79 -178 -193 -21 c-106 -12 -195 -23 -197 -26 -3 -2
60 -63 140 -134 80 -71 145 -133 145 -139 0 -5 -18 -93 -39 -195 -22 -102 -38
-186 -37 -187 1 -1 49 25 106 59 58 33 135 77 172 98 l67 38 170 -98 c128 -74
171 -94 171 -82 0 9 -16 91 -35 181 -19 90 -35 171 -35 180 0 10 65 76 144
147 106 95 139 131 127 135 -9 3 -98 14 -197 24 l-181 18 -79 178 c-44 98 -82
179 -85 179 -3 0 -41 -80 -85 -177z"/>
<path d="M4462 10520 c-74 -168 -67 -157 -108 -163 -22 -4 -72 -9 -111 -13
-40 -4 -73 -8 -73 -10 0 -3 25 -27 124 -116 l39 -35 -22 -107 c-13 -59 -21
-109 -19 -111 1 -2 44 21 93 51 50 29 93 53 97 54 3 0 48 -24 100 -54 51 -30
94 -53 96 -52 1 2 -8 51 -20 110 l-23 108 85 77 84 78 -79 7 c-153 13 -141 6
-195 120 l-48 101 -20 -45z"/>
<path d="M7520 10463 c-24 -54 -45 -99 -45 -101 -1 -1 -53 -8 -115 -14 l-113
-12 84 -77 84 -77 -23 -108 c-12 -59 -21 -108 -20 -110 2 -1 28 12 58 30 30
18 74 43 96 55 l41 23 97 -55 c53 -31 96 -52 96 -47 0 5 -10 55 -22 111 l-21
102 34 30 c71 62 130 119 127 122 -2 1 -50 7 -107 13 -57 6 -107 15 -112 19
-4 4 -24 46 -44 93 -21 47 -40 89 -44 93 -4 4 -27 -36 -51 -90z"/>
<path d="M3815 9526 c-175 -34 -296 -95 -406 -205 -114 -114 -176 -240 -217
-440 -16 -79 -17 -179 -17 -1206 0 -1246 -2 -1196 69 -1385 117 -312 389 -479
781 -480 388 0 664 168 781 475 58 154 66 221 71 588 l5 337 -270 0 -271 0 -3
-327 c-3 -312 -4 -331 -26 -384 -46 -115 -125 -163 -267 -164 -113 0 -168 20
-224 80 -80 87 -76 17 -76 1265 0 1040 1 1108 18 1157 46 131 128 186 277 186
105 0 174 -26 225 -86 63 -73 68 -102 73 -399 l4 -268 270 0 270 0 -5 278 c-5
253 -7 287 -31 386 -16 68 -43 146 -72 205 -39 81 -60 109 -133 181 -98 97
-199 154 -336 191 -102 27 -381 35 -490 15z"/>
<path d="M5535 9488 c-2 -7 -29 -173 -60 -368 -31 -195 -97 -607 -146 -915
-49 -308 -103 -643 -119 -745 -16 -102 -49 -311 -74 -465 -25 -154 -75 -464
-110 -690 -36 -225 -68 -420 -71 -433 l-5 -22 262 2 263 3 46 311 c26 171 49
319 51 328 3 15 37 16 358 17 l354 0 49 -328 c27 -180 50 -329 51 -331 2 -1
131 -1 287 0 l285 3 -73 455 c-113 704 -210 1315 -366 2290 l-143 895 -417 3
c-329 2 -418 0 -422 -10z m465 -1109 c38 -255 84 -556 100 -669 17 -113 47
-307 66 -432 18 -124 34 -237 34 -250 l0 -23 -275 0 c-240 0 -275 2 -275 15 0
9 61 420 135 915 74 495 135 904 135 909 0 5 2 7 5 4 3 -3 37 -214 75 -469z"/>
<path d="M7100 7675 l0 -1825 285 0 285 0 0 746 0 746 163 -4 c161 -3 164 -4
231 -37 67 -33 115 -82 138 -141 39 -101 41 -124 48 -660 6 -511 7 -527 29
-587 l23 -63 288 0 289 0 -14 33 c-37 89 -45 189 -45 581 0 585 -17 733 -100
903 -49 99 -129 184 -218 231 -34 18 -62 35 -62 36 0 2 26 19 59 39 131 81
231 226 278 405 24 91 26 115 31 388 3 236 1 311 -12 403 -46 314 -198 505
-466 585 -132 40 -227 46 -737 46 l-493 0 0 -1825z m971 1290 c59 -21 115 -78
141 -145 21 -51 22 -74 26 -350 4 -311 -2 -379 -40 -455 -28 -56 -65 -92 -123
-123 -48 -26 -58 -27 -227 -30 l-178 -4 0 561 0 561 179 0 c135 0 189 -4 222
-15z"/>
<path d="M3430 5641 c-154 -33 -237 -132 -247 -294 -11 -173 43 -266 252 -434
208 -167 244 -216 245 -325 0 -50 -4 -62 -29 -90 -25 -29 -35 -32 -92 -35 -40
-3 -74 1 -89 9 -39 21 -60 73 -60 151 l0 67 -120 0 -120 0 0 -60 c0 -151 47
-248 152 -313 41 -26 135 -47 204 -47 l62 0 86 85 c48 47 124 113 169 146 45
34 85 71 88 83 10 36 -8 134 -35 189 -34 71 -111 155 -215 234 -114 88 -198
169 -222 215 -42 81 -33 177 18 218 19 15 41 20 85 20 95 0 119 -23 128 -125
l5 -60 119 -3 119 -3 -5 78 c-8 137 -60 219 -172 269 -54 24 -75 28 -176 30
-63 2 -131 -1 -150 -5z"/>
<path d="M5070 5635 c-79 -22 -157 -79 -191 -140 -41 -73 -49 -150 -49 -492
l0 -302 68 -36 c37 -19 94 -55 127 -80 l60 -45 5 427 c3 236 9 435 13 444 14
29 63 49 119 49 67 0 98 -16 120 -60 16 -32 18 -74 18 -437 0 -413 -2 -437
-41 -479 l-20 -22 68 -38 c37 -20 83 -46 102 -56 33 -19 34 -19 58 4 14 13 37
46 51 73 l27 50 0 465 0 465 -27 50 c-35 66 -80 108 -153 141 -53 25 -74 28
-180 31 -84 2 -136 -2 -175 -12z"/>
<path d="M4030 5135 c0 -278 2 -505 4 -505 2 0 34 14 72 31 38 18 92 39 119
49 44 15 50 20 53 48 l3 32 72 0 c103 1 212 17 261 39 63 27 120 83 147 144
23 49 24 64 24 242 0 177 -2 193 -23 240 -46 100 -124 154 -253 174 -35 6
-157 11 -271 11 l-208 0 0 -505z m450 297 c48 -24 59 -62 59 -212 1 -211 -13
-232 -165 -238 l-94 -4 0 236 0 236 83 0 c58 0 92 -5 117 -18z"/>
<path d="M5650 5545 l0 -95 135 0 135 0 0 -585 0 -585 125 0 125 0 0 585 0
585 265 0 265 0 0 -585 0 -585 63 0 c39 0 85 8 125 22 l62 23 0 562 0 563 135
0 135 0 0 95 0 95 -785 0 -785 0 0 -95z"/>
<path d="M7280 4992 l0 -649 76 -7 c42 -3 127 -17 189 -31 99 -22 132 -25 271
-23 l159 3 0 90 0 90 -222 3 -223 2 0 199 c0 191 1 199 20 204 11 3 90 5 175
4 l155 -2 0 93 0 92 -175 0 -175 0 0 195 0 195 223 2 222 3 0 90 0 90 -347 3
-348 2 0 -648z"/>
<path d="M8080 4960 l0 -680 125 0 125 0 2 278 3 277 80 -1 c94 -1 136 -19
162 -67 15 -27 19 -67 23 -242 3 -115 9 -218 14 -227 7 -16 24 -18 133 -18
l125 0 -7 23 c-4 12 -10 121 -14 242 -6 216 -6 221 -35 279 -22 46 -40 65 -79
89 -44 28 -47 33 -31 42 47 26 111 102 125 151 15 53 20 263 6 325 -14 67 -62
126 -130 159 -83 40 -161 50 -414 50 l-213 0 0 -680z m467 470 c38 -24 48 -66
48 -197 0 -108 -2 -125 -21 -150 -30 -41 -59 -51 -154 -55 l-85 -3 -3 200 c-1
110 0 206 3 213 7 19 180 12 212 -8z"/>
<path fill="#0057B8" d="M4395 4580 c-315 -56 -649 -318 -859 -674 -127 -215 -220 -471 -262
-721 -24 -139 -23 -416 0 -550 24 -134 82 -304 136 -400 56 -98 170 -220 262
-281 100 -67 178 -91 323 -99 93 -5 148 -14 245 -42 69 -19 157 -39 195 -43
39 -5 102 -18 140 -30 91 -28 232 -30 330 -5 317 79 616 365 813 776 130 272
192 579 179 889 -11 269 -106 515 -256 667 -52 53 -85 74 -185 123 -66 33
-159 82 -206 109 -47 28 -101 53 -120 57 l-35 6 45 -27 c181 -108 299 -305
345 -580 22 -129 22 -363 0 -510 -67 -446 -273 -870 -554 -1137 -198 -189
-389 -279 -585 -277 -149 2 -164 20 -49 59 178 60 309 144 469 304 340 340
546 848 545 1348 0 361 -110 662 -308 849 -138 130 -273 188 -452 194 -58 2
-128 0 -156 -5z m287 -106 c168 -40 319 -177 419 -379 197 -398 143 -993 -137
-1487 -150 -265 -378 -492 -597 -593 -276 -127 -554 -90 -742 99 -192 192
-278 442 -277 801 0 459 199 942 519 1261 261 261 544 364 815 298z m799 -333
c134 -101 223 -259 274 -488 25 -107 30 -365 11 -509 -55 -414 -238 -804 -506
-1073 -150 -152 -292 -239 -454 -281 -80 -20 -200 -27 -210 -12 -3 5 18 17 47
27 81 28 206 92 277 143 80 57 229 207 303 304 272 363 427 872 397 1303 -18
251 -75 425 -192 583 -49 66 -31 67 53 3z"/>
<path fill="#0057B8" d="M4410 4223 c-196 -32 -417 -190 -573 -408 -115 -162 -218 -412 -259
-633 -17 -88 -16 -370 0 -447 71 -327 243 -519 494 -550 153 -19 369 68 527
211 59 53 181 192 181 206 0 4 -37 -20 -82 -55 -120 -90 -192 -120 -293 -120
-199 0 -324 117 -386 363 -19 73 -21 103 -16 215 12 280 128 543 315 715 89
82 171 125 279 147 68 14 81 14 141 -1 151 -37 239 -135 302 -336 l20 -65 -6
90 c-21 341 -187 597 -429 660 -55 14 -156 18 -215 8z"/>
<path fill="#0057B8" d="M4615 3472 c-233 -111 -323 -494 -154 -663 129 -129 355 -55 459 150
82 164 76 352 -17 460 -74 87 -176 106 -288 53z"/>
<path fill="#0057B8" d="M7056 4179 c-116 -13 -177 -50 -308 -190 -62 -66 -132 -132 -156
-146 -41 -24 -48 -25 -135 -19 -80 6 -90 5 -77 -7 8 -8 168 -104 355 -212 187
-108 346 -202 354 -209 22 -17 89 -168 116 -264 38 -129 52 -296 37 -434 -56
-501 -281 -921 -635 -1182 -115 -85 -132 -90 -243 -77 -118 14 -141 14 -128 1
15 -15 148 -72 454 -195 140 -57 338 -138 440 -180 297 -123 431 -162 620
-180 133 -13 255 26 347 109 l48 44 -42 11 c-85 23 -132 94 -114 171 5 19 30
89 55 155 26 66 110 287 187 490 77 204 152 389 165 412 26 45 67 73 107 73
13 0 57 -14 97 -30 41 -17 77 -27 81 -23 25 27 43 343 20 357 -5 4 -22 -31
-36 -76 -15 -46 -30 -86 -34 -90 -3 -4 -23 25 -43 65 -38 73 -87 138 -267 352
-56 67 -101 129 -101 141 0 11 14 60 30 109 17 49 30 100 30 115 0 48 -127
405 -187 523 -42 85 -89 137 -163 182 -199 121 -653 227 -874 204z m237 -113
c53 -14 135 -43 182 -66 112 -55 163 -111 194 -212 33 -106 33 -108 23 -108
-5 0 -92 32 -193 71 -187 73 -450 162 -571 194 -38 10 -68 21 -68 25 0 20 89
92 135 108 56 20 195 14 298 -12z m305 -1656 c46 -28 66 -80 58 -153 -8 -77
-34 -134 -79 -174 -94 -83 -197 -32 -197 98 0 103 46 189 120 227 54 27 57 27
98 2z"/>
<path fill="#0057B8" d="M7145 4012 c-16 -11 -38 -29 -49 -40 -18 -21 -18 -22 5 -31 119 -44
543 -190 546 -187 3 2 -6 27 -18 55 -33 77 -81 112 -228 167 -148 55 -212 64
-256 36z"/>
<path fill="#0057B8" d="M7498 2330 c-75 -59 -77 -220 -3 -220 57 0 125 104 111 172 -13 65
-60 86 -108 48z"/>
<path fill="#0057B8" d="M5816 3952 c38 -35 334 -215 477 -289 4 -2 7 0 7 6 0 24 -72 76 -257
183 -287 168 -312 179 -227 100z"/>
<path fill="#0057B8" d="M5910 3801 c0 -20 44 -61 107 -98 144 -85 385 -214 395 -211 29 10
-58 75 -219 163 -98 54 -202 110 -230 126 -29 16 -53 25 -53 20z"/>
<path fill="#0057B8" d="M6364 3689 c167 -219 245 -501 216 -784 -41 -407 -206 -789 -445
-1030 -134 -135 -280 -221 -484 -281 -8 -3 -12 -7 -9 -9 12 -12 714 -75 738
-67 38 14 128 74 214 142 226 182 407 492 485 830 62 265 48 522 -38 746 -48
124 -64 142 -203 221 -68 39 -188 109 -268 155 -80 46 -171 99 -204 117 l-59
34 57 -74z"/>
<path fill="#0057B8" d="M5970 3642 c0 -18 51 -53 181 -125 213 -118 319 -169 319 -154 0 23
-24 45 -80 75 -30 16 -133 70 -227 120 -169 90 -193 101 -193 84z"/>
<path fill="#0057B8" d="M6010 3502 c0 -11 8 -26 18 -34 24 -21 463 -241 469 -234 3 2 2 13
-1 24 -5 13 -83 59 -241 141 -129 67 -237 121 -240 121 -3 0 -5 -8 -5 -18z"/>
<path fill="#0057B8" d="M6030 3370 c0 -19 66 -54 388 -206 85 -40 92 -42 92 -23 0 17 -42 41
-234 135 -129 63 -237 114 -240 114 -3 0 -6 -9 -6 -20z"/>
<path fill="#0057B8" d="M8370 3301 c0 -9 26 -28 84 -60 65 -37 210 -82 281 -88 l70 -6 -20
23 c-27 32 -163 94 -259 119 -83 22 -156 27 -156 12z"/>
<path fill="#0057B8" d="M6032 3259 c2 -16 52 -43 236 -130 129 -60 238 -109 243 -109 5 0 9
8 9 19 0 14 -53 43 -233 130 -129 61 -239 111 -246 111 -7 0 -11 -9 -9 -21z"/>
<path fill="#0057B8" d="M8333 3243 c-3 -10 -19 -52 -34 -93 -45 -117 -51 -100 115 -290 60
-69 131 -156 157 -194 30 -42 51 -63 54 -55 73 206 165 474 165 483 0 9 -21
16 -57 20 -77 9 -222 59 -311 107 -41 21 -76 39 -78 39 -3 0 -7 -8 -11 -17z"/>
<path fill="#0057B8" d="M6030 3151 c0 -15 49 -40 241 -126 133 -58 243 -104 245 -102 11 11
-10 35 -44 52 -96 47 -425 195 -433 195 -5 0 -9 -9 -9 -19z"/>
<path fill="#0057B8" d="M6022 3051 c2 -18 37 -37 193 -105 284 -124 307 -131 292 -94 -2 8
-105 57 -228 110 -288 124 -261 115 -257 89z"/>
<path fill="#0057B8" d="M6004 2959 c-3 -6 0 -17 8 -25 15 -16 442 -194 464 -194 8 0 14 8 14
18 0 14 -52 39 -234 115 -128 53 -236 97 -239 97 -3 0 -9 -5 -13 -11z"/>
<path fill="#0057B8" d="M5980 2850 c0 -11 46 -32 284 -126 104 -41 195 -73 202 -70 43 16 -4
43 -186 106 -69 24 -132 49 -140 55 -37 30 -160 57 -160 35z"/>
<path fill="#0057B8" d="M5950 2761 c0 -17 26 -30 130 -67 58 -20 110 -40 115 -45 12 -9 233
-89 247 -89 4 0 8 8 8 19 0 15 -43 34 -230 105 -222 83 -270 96 -270 77z"/>
<path fill="#0057B8" d="M5933 2673 c-7 -3 -13 -11 -13 -18 0 -7 6 -15 13 -18 6 -2 112 -39
235 -82 209 -73 279 -87 241 -50 -23 23 -455 175 -476 168z"/>
<path fill="#0057B8" d="M5890 2573 c0 -5 4 -13 8 -19 10 -15 469 -167 482 -159 29 18 -8 36
-217 108 -213 72 -273 88 -273 70z"/>
<path fill="#0057B8" d="M5856 2481 c-11 -17 20 -30 241 -100 230 -74 263 -81 263 -56 0 10
-70 37 -231 90 -230 75 -263 83 -273 66z"/>
<path fill="#0057B8" d="M5824 2389 c-3 -6 -2 -14 2 -18 5 -4 80 -29 166 -55 264 -79 300 -88
312 -76 6 6 6 13 0 19 -12 11 -441 141 -465 141 -5 0 -11 -5 -15 -11z"/>
<path fill="#0057B8" d="M5770 2308 c0 -8 9 -23 20 -33 11 -10 20 -15 20 -12 0 3 15 1 33 -4
17 -6 115 -32 216 -60 179 -48 241 -55 209 -22 -15 14 -70 31 -323 98 -71 19
-140 37 -152 41 -16 4 -23 2 -23 -8z"/>
<path fill="#0057B8" d="M8473 2295 c-21 -9 -35 -26 -48 -56 -31 -77 -196 -509 -255 -669 -32
-85 -76 -203 -99 -263 -47 -124 -51 -161 -18 -179 25 -14 108 -48 118 -48 13
0 128 188 187 306 113 225 169 369 257 653 61 197 61 201 -12 233 -74 33 -97
37 -130 23z"/>
<path fill="#0057B8" d="M5724 2219 c-14 -23 27 -38 248 -93 214 -53 264 -59 255 -32 -4 12
-31 20 -305 91 -191 50 -188 49 -198 34z"/>
<path fill="#0057B8" d="M5657 2133 c-4 -3 -7 -10 -7 -14 0 -4 84 -28 188 -53 319 -77 309
-75 328 -62 11 8 13 15 6 20 -16 10 -460 116 -486 116 -12 0 -26 -3 -29 -7z"/>
<path fill="#0057B8" d="M5600 2045 c-7 -8 -11 -18 -8 -20 5 -5 240 -58 399 -91 91 -18 139
-14 107 10 -10 7 -115 34 -235 61 -119 26 -224 50 -233 52 -9 2 -22 -3 -30
-12z"/>
<path fill="#0057B8" d="M5522 1958 c-19 -19 -14 -25 26 -32 20 -4 121 -25 224 -47 103 -21
201 -39 217 -39 28 0 49 15 37 27 -7 7 -444 102 -471 103 -12 0 -26 -5 -33
-12z"/>
<path fill="#0057B8" d="M5420 1865 c-7 -8 -10 -15 -7 -15 3 0 51 -9 108 -21 249 -50 371 -68
397 -58 48 19 30 23 -338 90 -127 23 -144 23 -160 4z"/>
<path fill="#0057B8" d="M5305 1786 c-18 -13 -15 -15 35 -25 30 -6 126 -22 212 -36 163 -26
258 -32 258 -16 0 11 -29 17 -277 61 -197 34 -203 35 -228 16z"/>
<path fill="#0057B8" d="M5134 1705 c-11 -8 -14 -15 -6 -15 6 0 103 -14 215 -31 188 -28 287
-32 287 -10 0 8 -388 71 -441 71 -19 0 -44 -7 -55 -15z"/>
</g>
</svg>
